<svg width="78" height="81" viewBox="0 0 78 81" fill="none" xmlns="http://www.w3.org/2000/svg">
<path d="M33.8039 3C36.1133 -1 41.8868 -1 44.1962 3L77.1051 60C79.4145 64 76.5278 69 71.909 69H6.09104C1.47224 69 -1.41451 64 0.894891 60L33.8039 3Z" fill="#A855F7"/>
<path d="M75.1929 31.5449L47.7008 34.8331C47.0207 34.9144 46.4956 34.247 46.735 33.6051L58.4907 2.07956C58.8442 1.13168 57.625 0.395922 56.9511 1.15055L14.4884 48.6957C13.9306 49.3203 14.4355 50.304 15.2682 50.2147L40.4024 47.5218C41.0575 47.4516 41.57 48.0761 41.3729 48.7051L31.921 78.8628C31.628 79.7977 32.8109 80.4767 33.4705 79.7523L75.9781 33.0692C76.5486 32.4428 76.0343 31.4443 75.1929 31.5449Z" fill="url(#paint0_linear_10_21)"/>
<defs>
<linearGradient id="paint0_linear_10_21" x1="40.8242" y1="2.77805" x2="49.5491" y2="78.1235" gradientUnits="userSpaceOnUse">
<stop stop-color="#FFEB3B"/>
<stop offset="1" stop-color="#FBC12D"/>
</linearGradient>
</defs>
</svg>
